<?xml version="1.0" encoding="utf-8"?>
<!-- Generator: Adobe Illustrator 27.0.0, SVG Export Plug-In . SVG Version: 6.00 Build 0)  -->
<svg version="1.1" id="Capa_1" xmlns="http://www.w3.org/2000/svg" xmlns:xlink="http://www.w3.org/1999/xlink" x="0px" y="0px"
	 viewBox="0 0 300 200" style="enable-background:new 0 0 300 200;" xml:space="preserve">
<style type="text/css">
	.st0{fill:#020203;stroke:#020203;stroke-miterlimit:10;}
	.st1{fill:none;}
	.st2{font-family:'NHL_Edge_Buffalo';}
	.st3{font-size:12px;}
</style>
<g>
	<path class="st0" d="M3.52,127.97l18.2-47.28h4.44L7.89,127.97H3.52z"/>
	<path class="st0" d="M23.44,127.97l18.2-47.28h4.44l-18.26,47.28H23.44z"/>
	<path class="st0" d="M48.17,85.52v-5.28h23.82v5.28h-8.85v43.63h-6.11V85.52H48.17z"/>
	<path class="st0" d="M80.35,129.15V80.24h18.88v5.28H86.47v16.53H98.1v5.28H86.47v16.53h12.76v5.28H80.35z"/>
	<path class="st0" d="M130.92,91.88h-6.02V91.1c0-1.56-0.56-2.9-1.66-4.01c-1.11-1.11-2.45-1.66-4.01-1.66s-2.9,0.56-4.01,1.66
		c-1.11,1.11-1.66,2.45-1.66,4.01v27.19c0,1.57,0.55,2.9,1.66,4.01c1.11,1.11,2.45,1.66,4.01,1.66s2.9-0.55,4.01-1.66
		c1.11-1.11,1.66-2.45,1.66-4.01v-0.78h6.02c0,3.2-1.14,5.93-3.42,8.22c-2.28,2.28-5.03,3.42-8.24,3.42c-3.21,0-5.96-1.14-8.24-3.42
		c-2.28-2.28-3.42-5.02-3.42-8.22V91.88c0-3.2,1.14-5.93,3.42-8.22c2.28-2.28,5.03-3.42,8.24-3.42c3.21,0,5.96,1.14,8.24,3.42
		C129.78,85.95,130.92,88.68,130.92,91.88z"/>
	<path class="st0" d="M145.74,80.24v43.62h12.76v5.28h-18.88V80.24H145.74z"/>
	<path class="st0" d="M166.09,129.15V80.24h18.88v5.28H172.2v16.53h11.64v5.28H172.2v16.53h12.76v5.28H166.09z"/>
	<path class="st0" d="M205.9,80.24c3.29,0,6.1,1.17,8.44,3.5c2.33,2.33,3.5,5.14,3.5,8.44v4.69c0,2.45-0.67,4.65-2.01,6.63
		s-3.08,3.42-5.23,4.33l7.24,21.32h-6.46l-6.9-20.35h-4.4v20.35h-6.11V80.24H205.9z M211.72,97.7h-0.05v-6.36
		c0-1.6-0.56-2.97-1.69-4.11c-1.12-1.14-2.49-1.71-4.08-1.71h-5.82v18h5.82c1.6,0,2.97-0.56,4.11-1.69
		C211.15,100.71,211.72,99.33,211.72,97.7z"/>
	<path class="st0" d="M229.47,83.66c2.28-2.28,5.03-3.42,8.24-3.42c3.21,0,5.96,1.14,8.24,3.42c2.28,2.28,3.42,5.02,3.42,8.22v1.03
		h-6.02V91.1c0-1.56-0.55-2.9-1.66-4.01c-1.11-1.11-2.45-1.66-4.01-1.66c-1.56,0-2.9,0.56-4.01,1.66c-1.11,1.11-1.66,2.45-1.66,4.01
		v4.45c0,0.78,0.26,1.56,0.78,2.32s1.14,1.3,1.86,1.59l9.29,3.86c1.5,0.59,2.78,1.67,3.84,3.25c1.06,1.58,1.59,3.17,1.59,4.77v6.16
		c0,3.2-1.14,5.93-3.42,8.22c-2.28,2.28-5.03,3.42-8.24,3.42c-3.21,0-5.96-1.14-8.24-3.42c-2.28-2.28-3.42-5.02-3.42-8.22v-1.03
		h5.97v1.81c0,1.57,0.55,2.9,1.66,4.01c1.11,1.11,2.45,1.66,4.01,1.66c1.57,0,2.91-0.55,4.04-1.66s1.69-2.45,1.69-4.01v-5.92
		c0-0.78-0.26-1.56-0.78-2.32c-0.52-0.77-1.14-1.3-1.86-1.59l-9.34-3.86c-1.47-0.62-2.73-1.65-3.79-3.11
		c-1.06-1.45-1.59-2.91-1.59-4.38v-5.23C226.05,88.68,227.19,85.95,229.47,83.66z"/>
</g>
<rect x="138.27" y="133.41" class="st1" width="146.9" height="16.75"/>
<text transform="matrix(1 0 0 1 138.2674 143.0122)" class="st2 st3">TECLA COMUNITY</text>
</svg>
