<?xml version="1.0" encoding="utf-8"?>
<!-- Generator: Adobe Illustrator 15.0.2, SVG Export Plug-In . SVG Version: 6.00 Build 0)  -->
<!DOCTYPE svg PUBLIC "-//W3C//DTD SVG 1.1//EN" "http://www.w3.org/Graphics/SVG/1.1/DTD/svg11.dtd">
<svg version="1.1" id="Layer_1" xmlns="http://www.w3.org/2000/svg" xmlns:xlink="http://www.w3.org/1999/xlink" x="0px" y="0px"
	 width="609.5px" height="124.797px" viewBox="0 0 609.5 124.797" enable-background="new 0 0 609.5 124.797" xml:space="preserve">
<path d="M145.816,1.61H89.141c-1.073,0-1.789,0.714-1.789,1.787v9.834c0,1.073,0.716,1.788,1.789,1.788h20.023
	c0.716,0,1.073,0.357,1.073,1.072V121.4c0,1.073,0.716,1.788,1.789,1.788h10.905c1.073,0,1.788-0.715,1.788-1.788V16.092
	c0-0.715,0.358-1.072,1.073-1.072h20.025c1.073,0,1.787-0.715,1.787-1.788V3.397C147.604,2.324,146.89,1.61,145.816,1.61
	 M208.927,1.61h-45.95c-1.073,0-1.788,0.714-1.788,1.787V121.4c0,1.073,0.715,1.788,1.788,1.788h45.95
	c1.073,0,1.787-0.715,1.787-1.788v-9.834c0-1.072-0.714-1.787-1.787-1.787h-32.182c-0.717,0-1.073-0.358-1.073-1.073v-38.53
	c0-0.716,0.356-1.072,1.073-1.072h27.891c1.073,0,1.787-0.716,1.787-1.789v-9.832c0-1.073-0.714-1.79-1.787-1.79h-27.891
	c-0.717,0-1.073-0.356-1.073-1.07v-38.53c0-0.715,0.356-1.072,1.073-1.072h32.182c1.073,0,1.787-0.715,1.787-1.788V3.397
	C210.714,2.324,210,1.61,208.927,1.61 M42.289,1.61H31.382c-1.073,0-1.944,0.714-2.179,1.787L3.311,121.398
	c-0.236,1.073,0.324,1.787,1.397,1.787h10.905c1.073,0,1.944-0.714,2.18-1.787L43.686,3.397C43.92,2.324,43.36,1.61,42.289,1.61
	 M76.929,1.61H66.023c-1.072,0-1.944,0.714-2.179,1.787L37.951,121.398c-0.236,1.073,0.324,1.787,1.397,1.787h10.905
	c1.073,0,1.944-0.714,2.18-1.787L78.326,3.397C78.562,2.324,78.002,1.61,76.929,1.61 M340.726,109.779H308.9
	c-0.716,0-1.072-0.358-1.072-1.073V3.397c0-1.073-0.717-1.787-1.789-1.787h-10.906c-1.073,0-1.787,0.714-1.787,1.787V121.4
	c0,1.073,0.714,1.788,1.787,1.788h45.592c1.072,0,1.787-0.715,1.787-1.788v-9.834C342.512,110.494,341.797,109.779,340.726,109.779
	 M416.466,121.524L390.573,3.523c-0.236-1.073-1.107-1.787-2.179-1.787h-10.957c-1.073,0-1.944,0.714-2.18,1.787l-25.892,118.001
	c-0.236,1.073,0.324,1.788,1.396,1.788h10.906c1.073,0,1.944-0.715,2.18-1.788l5.609-25.563c0.101-0.459,0.507-0.786,0.977-0.786
	h24.965c0.47,0,0.876,0.327,0.977,0.786l5.609,25.563c0.235,1.073,1.107,1.788,2.18,1.788h10.905
	C416.143,123.313,416.701,122.598,416.466,121.524 M392.238,82.66h-19.676c-0.635,0-1.109-0.584-0.979-1.205l10.832-51.718h0.537
	l10.267,51.728C393.341,82.084,392.868,82.66,392.238,82.66 M278.502,31.321c0.662,0,1.058-0.478,1.229-1.185
	c0.23-0.943,0.006-2.86-0.006-2.961C278.117,8.582,268.461,0,252.548,0c-13.765,0-22.348,6.437-26.102,17.879
	c-1.61,5.006-2.145,10.014-2.145,44.52c0,34.507,0.535,39.513,2.145,44.521c3.754,11.442,12.337,17.878,26.102,17.878
	c15.913,0,25.569-8.581,27.177-27.175c0.013-0.094,0.132-1.783,0.091-2.599c-0.043-0.863-0.754-1.544-1.618-1.544h-10.44
	c-0.911-0.021-1.621,0.505-1.621,1.459c-0.894,10.907-5.006,16.271-13.409,16.271c-6.437,0-10.371-2.683-12.158-8.403
	c-1.072-3.397-1.61-6.795-1.61-40.408c0-33.612,0.538-37.01,1.61-40.407c1.787-5.72,5.721-8.403,12.158-8.403
	c8.403,0,12.515,5.364,13.409,16.271c0,0.95,0.703,1.477,1.608,1.46l-0.004,0.002H278.502z"/>
<path d="M446.392,27.752c-7.064,0-11.965-4.686-11.965-13.479c0-7.75,4.865-13.301,12.037-13.301c5.514,0,9.479,2.884,10.524,7.93
	L453.6,9.299c-0.973-3.749-3.64-5.442-7.136-5.442c-6.199,0-8.577,5.118-8.577,10.417c0,8.289,4.685,10.595,8.541,10.595
	c4.253,0,6.812-2.667,7.497-6.992l3.387,0.433C456.267,24.363,452.411,27.752,446.392,27.752"/>
<path d="M472.297,0.937c7.532,0,12.254,5.983,12.254,13.191c0,7.028-4.109,13.624-12.326,13.624
	c-7.281,0-12.326-5.587-12.326-13.228C459.899,5.442,465.846,0.937,472.297,0.937 M472.226,24.904c6.307,0,8.866-5.262,8.866-10.704
	c0-5.622-3.208-10.416-8.83-10.416c-5.442,0-8.902,4.181-8.902,10.776C463.359,19.065,465.703,24.904,472.226,24.904"/>
<path d="M497.502,1.478c4.505,0,7.208,1.226,8.758,2.631c2.415,2.162,3.64,5.442,3.64,9.876c0,4.145-0.973,7.315-2.703,9.479
	c-2.054,2.595-4.902,3.784-9.479,3.784h-9.082V1.478H497.502z M497.683,24.292c2.487,0,5.01-0.505,6.596-2.56
	c1.261-1.621,2.162-3.964,2.162-7.532c0-4.794-1.514-7.497-4.072-8.902c-1.118-0.612-2.631-0.829-4.722-0.829h-5.586v19.823H497.683
	z"/>
<rect x="514.293" y="1.478" width="3.424" height="25.771"/>
<polygon points="526.538,6.523 526.43,6.523 526.43,27.247 523.15,27.247 523.15,1.478 526.718,1.478 540.197,22.093 
	540.306,22.093 540.306,1.478 543.585,1.478 543.585,27.247 539.945,27.247 "/>
<path d="M560.268,3.82c-5.479,0-9.118,3.856-9.118,10.668c0,6.271,3.748,10.308,9.154,10.308c4.865,0,7.929-2.595,7.929-6.198v-1.73
	h-7.857v-2.955h11.029v4.829c-0.144,5.262-4.541,8.976-11.173,8.976c-6.487,0-12.506-4.578-12.506-13.192
	c0-8.902,5.514-13.552,12.542-13.552c7.101,0,9.983,4.073,10.813,8.073l-3.245,0.433C566.863,5.01,563.331,3.82,560.268,3.82"/>
<path d="M436.301,62.247h-3.568l9.947-25.77h3.748l10.309,25.77h-3.785l-2.92-7.785h-10.884L436.301,62.247z M446.032,43.866
	c-0.541-1.514-1.082-2.991-1.514-4.47h-0.036c-0.396,1.479-0.901,2.992-1.442,4.47l-2.846,7.785h8.757L446.032,43.866z"/>
<path d="M468.91,62.752c-7.064,0-11.965-4.686-11.965-13.479c0-7.75,4.865-13.301,12.037-13.301c5.514,0,9.479,2.884,10.524,7.93
	l-3.388,0.396c-0.973-3.749-3.64-5.442-7.136-5.442c-6.199,0-8.577,5.118-8.577,10.417c0,8.289,4.685,10.595,8.541,10.595
	c4.253,0,6.812-2.667,7.497-6.992l3.387,0.433C478.785,59.363,474.929,62.752,468.91,62.752"/>
<path d="M483.898,62.247h-3.568l9.947-25.77h3.748l10.309,25.77h-3.785l-2.919-7.785h-10.885L483.898,62.247z M493.629,43.866
	c-0.54-1.514-1.081-2.991-1.514-4.47h-0.036c-0.396,1.479-0.9,2.992-1.441,4.47l-2.847,7.785h8.758L493.629,43.866z"/>
<path d="M515.764,36.478c4.505,0,7.208,1.226,8.758,2.631c2.415,2.162,3.64,5.442,3.64,9.876c0,4.145-0.973,7.315-2.703,9.479
	c-2.054,2.595-4.902,3.784-9.479,3.784h-9.082v-25.77H515.764z M515.944,59.292c2.487,0,5.01-0.505,6.596-2.56
	c1.261-1.621,2.162-3.964,2.162-7.532c0-4.794-1.513-7.497-4.072-8.902c-1.118-0.612-2.631-0.829-4.722-0.829h-5.586v19.823H515.944
	z"/>
<polygon points="532.367,36.478 550.568,36.478 550.568,39.469 535.791,39.469 535.791,47.47 549.595,47.47 549.595,50.426 
	535.791,50.426 535.791,59.292 550.929,59.292 550.929,62.248 532.367,62.248 "/>
<polygon points="557.905,40.586 557.833,40.586 557.833,62.247 554.553,62.247 554.553,36.478 559.455,36.478 565.87,54.462 
	567.168,58.355 568.537,54.462 575.024,36.478 579.674,36.478 579.674,62.247 576.394,62.247 576.394,40.767 576.322,40.767 
	568.609,62.247 565.618,62.247 "/>
<polygon points="601.895,36.478 605.823,36.478 595.768,51.543 595.768,62.248 592.343,62.248 592.343,51.543 582.396,36.478 
	586.504,36.478 594.146,48.695 "/>
</svg>
