<?xml version="1.0" encoding="utf-8"?>
<!-- Generator: Adobe Illustrator 27.0.0, SVG Export Plug-In . SVG Version: 6.00 Build 0)  -->
<svg version="1.1" id="Capa_1" xmlns="http://www.w3.org/2000/svg" xmlns:xlink="http://www.w3.org/1999/xlink" x="0px" y="0px"
	 viewBox="0 0 1920 1080" style="enable-background:new 0 0 1920 1080;" xml:space="preserve">
<style type="text/css">
	.st0{fill:none;}
	.st1{fill:#0B65C2;}
</style>
<g>
	<path class="st0" d="M1393.72,501.92c0,46.89,0.01,93.78-0.02,140.67c0,4.01,0.59,7.88,2.07,11.6c2.6,6.51,7.17,10.77,14.21,12.01
		c2.04,0.36,4.14,0.57,6.22,0.57c92.41,0.03,184.82,0.03,277.23,0c2.42,0,4.87-0.23,7.27-0.59c13.65-2.07,22.4-12.19,22.4-25.83
		c0-92.38,0-184.77,0-277.15c0-1.16,0.04-2.33-0.02-3.49c-0.45-9.14-4.67-15.88-12.89-20c-3.82-1.92-7.91-2.58-12.15-2.58
		c-92.64,0.01-185.29,0.01-277.93,0.01c-0.7,0-1.4-0.03-2.09,0.01c-14.85,0.73-24.42,11.81-24.36,24.81
		C1393.84,408.6,1393.72,455.26,1393.72,501.92z"/>
	<path class="st1" d="M1393.72,501.92c0-46.66,0.12-93.31-0.07-139.97c-0.05-13,9.52-24.08,24.36-24.81c0.7-0.03,1.4-0.01,2.09-0.01
		c92.64,0,185.29,0,277.93-0.01c4.24,0,8.33,0.66,12.15,2.58c8.22,4.13,12.44,10.87,12.89,20c0.06,1.16,0.02,2.33,0.02,3.49
		c0,92.38,0,184.77,0,277.15c0,13.63-8.75,23.76-22.4,25.83c-2.4,0.36-4.84,0.59-7.27,0.59c-92.41,0.03-184.82,0.03-277.23,0
		c-2.07,0-4.17-0.21-6.22-0.57c-7.04-1.24-11.61-5.5-14.21-12.01c-1.48-3.71-2.07-7.58-2.07-11.6
		C1393.73,595.7,1393.72,548.81,1393.72,501.92z M1629.2,620.29c15.96,0,31.51,0,47.47,0c0.14-1.73,0.37-3.31,0.38-4.88
		c0.02-23.97,0-47.94,0.03-71.9c0.01-10.35-0.02-20.69-1.18-31c-0.9-8.01-2.51-15.84-5.7-23.26c-4.32-10.07-11.15-17.84-21.2-22.63
		c-7.45-3.55-15.34-5.02-23.49-5.89c-11.64-1.23-22.96-0.18-33.97,3.69c-10.62,3.74-19.95,9.4-26.67,18.75
		c-0.09,0.13-0.4,0.11-0.74,0.2c0-3.51,0.04-6.98-0.01-10.46c-0.06-3.43,0.28-6.9-0.29-10.42c-15.11,0-29.84,0-44.86,0
		c-0.14,1.69-0.38,3.16-0.38,4.64c-0.02,49.43-0.02,98.85-0.02,148.28c0,1.04,0.06,2.09,0.14,3.13c0.09,1.25,0.8,1.87,2.04,1.91
		c0.58,0.02,1.16,0.04,1.74,0.04c13.62,0,27.23,0.01,40.85-0.01c1.01,0,2.02-0.19,3.29-0.32c0.09-1.7,0.23-3.18,0.23-4.66
		c0.03-25.01,0-50.03,0.1-75.04c0.03-6.19,1.13-12.27,3.45-18.05c2.15-5.36,5.16-10.1,9.86-13.69c4.68-3.58,10.05-5.38,15.76-6.02
		c12.21-1.36,22.33,1.86,28.61,15.91c2.55,5.71,3.81,11.74,3.94,17.93c0.24,10.82,0.22,21.64,0.23,32.46
		c0.02,15.35-0.05,30.71-0.04,46.06C1628.76,616.75,1629.04,618.44,1629.2,620.29z M1487.56,620.25c0.76-4.43,0.58-155-0.1-157.6
		c-3.57-0.67-44.21-0.56-47.22,0.21c-0.07,1.48-0.2,3.07-0.2,4.67c-0.01,41.4-0.01,82.81-0.01,124.21c0,8.26-0.01,16.52,0.01,24.77
		c0,1.22,0.19,2.44,0.3,3.73C1456.31,620.25,1471.85,620.25,1487.56,620.25z M1464.31,377.74c-15.57-0.18-30.28,12.2-30.15,30.02
		c0.12,16.87,13.2,29.42,29.36,29.75c16.98,0.34,30.36-13.18,30.52-29.66C1494.21,391.32,1480.77,377.83,1464.31,377.74z"/>
	<path class="st0" d="M1629.2,620.29c-0.16-1.85-0.43-3.54-0.43-5.23c-0.01-15.35,0.06-30.71,0.04-46.06
		c-0.01-10.82,0.01-21.64-0.23-32.46c-0.13-6.19-1.39-12.22-3.94-17.93c-6.28-14.06-16.39-17.27-28.61-15.91
		c-5.71,0.64-11.08,2.44-15.76,6.02c-4.69,3.58-7.71,8.33-9.86,13.69c-2.32,5.78-3.42,11.86-3.45,18.05
		c-0.11,25.01-0.07,50.03-0.1,75.04c0,1.48-0.14,2.95-0.23,4.66c-1.27,0.13-2.28,0.31-3.29,0.32c-13.62,0.02-27.23,0.01-40.85,0.01
		c-0.58,0-1.16-0.02-1.74-0.04c-1.24-0.04-1.95-0.66-2.04-1.91c-0.07-1.04-0.14-2.09-0.14-3.13c0-49.43,0-98.85,0.02-148.28
		c0-1.48,0.23-2.95,0.38-4.64c15.02,0,29.75,0,44.86,0c0.57,3.52,0.24,6.99,0.29,10.42c0.06,3.47,0.01,6.95,0.01,10.46
		c0.34-0.08,0.65-0.06,0.74-0.2c6.71-9.35,16.05-15.01,26.67-18.75c11.01-3.87,22.33-4.93,33.97-3.69
		c8.15,0.86,16.03,2.34,23.49,5.89c10.05,4.79,16.88,12.57,21.2,22.63c3.18,7.42,4.79,15.25,5.7,23.26
		c1.16,10.31,1.19,20.65,1.18,31c-0.03,23.97,0,47.94-0.03,71.9c0,1.58-0.24,3.15-0.38,4.88
		C1660.71,620.29,1645.16,620.29,1629.2,620.29z"/>
	<path class="st0" d="M1487.56,620.25c-15.71,0-31.25,0-47.22,0c-0.11-1.3-0.29-2.52-0.3-3.73c-0.03-8.26-0.01-16.52-0.01-24.77
		c0-41.4,0-82.81,0.01-124.21c0-1.59,0.13-3.18,0.2-4.67c3.01-0.77,43.64-0.88,47.22-0.21
		C1488.14,465.25,1488.31,615.82,1487.56,620.25z"/>
	<path class="st0" d="M1464.31,377.74c16.46,0.08,29.9,13.58,29.74,30.11c-0.16,16.48-13.55,30-30.52,29.66
		c-16.16-0.33-29.24-12.88-29.36-29.75C1434.03,389.94,1448.74,377.56,1464.31,377.74z"/>
</g>
<g>
	<path class="st1" d="M159.2,642.05V407.56H81.03v-54.97H303.5v54.97h-79.02v234.49H159.2z"/>
	<path class="st1" d="M486.89,557.87H351.6c0.86,12.88,6.87,22.76,18.04,29.63c11.17,6.87,24.91,10.31,41.23,10.31
		c21.19,0,40.51-3.01,57.98-9.02l8.59,44.24c-21.19,8.88-46.53,13.31-76.02,13.31c-35.22,0-62.7-9.52-82.46-28.56
		c-19.76-19.04-29.63-45.16-29.63-78.38c0-18.61,3.58-36.14,10.74-52.61c7.15-16.46,19.04-30.49,35.65-42.09
		c16.6-11.6,36.51-17.39,59.7-17.39c31.49,0,54.97,10.17,70.43,30.49c15.46,20.33,23.19,45.1,23.19,74.3
		C489.03,541.27,488.32,549.86,486.89,557.87z M351.17,513.21h77.31c0-10.59-2.79-20.33-8.37-29.2
		c-5.58-8.87-15.11-13.31-28.56-13.31c-12.31,0-21.84,4.44-28.56,13.31C356.25,492.88,352.31,502.62,351.17,513.21z"/>
	<path class="st1" d="M678,588.37l7.73,48.1c-13.74,6.58-33.22,9.88-58.41,9.88c-34.08,0-61.13-9.66-81.17-28.99
		c-20.04-19.33-30.06-45.45-30.06-78.38c0-32.06,10.59-58.69,31.78-79.88c21.19-21.19,50.68-31.78,88.47-31.78
		c18.61,0,35.22,2.72,49.82,8.16L675.86,484c-9.74-4.29-21.9-6.44-36.51-6.44c-17.18,0-30.92,5.52-41.23,16.53
		c-10.31,11.03-15.32,25.12-15.03,42.3c0,18.33,5.44,32.71,16.32,43.16c10.88,10.46,24.62,15.68,41.23,15.68
		C654.95,595.24,667.41,592.95,678,588.37z"/>
	<path class="st1" d="M721.81,642.05V337.12h65.28v304.93H721.81z"/>
	<path class="st1" d="M1025.44,557.87H890.16c0.86,12.88,6.87,22.76,18.04,29.63c11.17,6.87,24.91,10.31,41.23,10.31
		c21.19,0,40.51-3.01,57.98-9.02l8.59,44.24c-21.19,8.88-46.53,13.31-76.02,13.31c-35.22,0-62.7-9.52-82.46-28.56
		c-19.76-19.04-29.63-45.16-29.63-78.38c0-18.61,3.58-36.14,10.74-52.61c7.15-16.46,19.04-30.49,35.65-42.09
		c16.6-11.6,36.51-17.39,59.7-17.39c31.49,0,54.97,10.17,70.43,30.49c15.46,20.33,23.19,45.1,23.19,74.3
		C1027.59,541.27,1026.87,549.86,1025.44,557.87z M889.73,513.21h77.31c0-10.59-2.79-20.33-8.37-29.2
		c-5.58-8.87-15.11-13.31-28.56-13.31c-12.31,0-21.84,4.44-28.56,13.31C894.81,492.88,890.87,502.62,889.73,513.21z"/>
	<path class="st1" d="M1066.67,642.05V501.18c0-30.06-0.58-53.11-1.72-69.15h55.83l2.58,38.65h1.72
		c5.15-14.31,13.03-25.19,23.62-32.64c10.59-7.44,21.61-11.17,33.07-11.17c4.29,0,8.87,0.43,13.74,1.29v61.42
		c-6.87-1.14-12.74-1.72-17.61-1.72c-12.03,0-21.9,2.94-29.63,8.8c-7.73,5.87-12.74,13.96-15.03,24.27
		c-0.86,4.3-1.29,9.17-1.29,14.6v106.51H1066.67z"/>
	<path class="st1" d="M1217.84,631.74l11.6-46.38c6.58,4.01,15.31,7.59,26.2,10.74c10.88,3.15,20.9,4.72,30.06,4.72
		c18.61,0,27.92-5.72,27.92-17.18c0-5.44-2.08-9.88-6.23-13.31c-4.15-3.44-12.24-7.15-24.27-11.17
		c-40.66-13.45-60.7-34.5-60.13-63.13c0-20.04,7.87-36.57,23.62-49.6c15.74-13.03,36.36-19.54,61.84-19.54
		c22.61,0,42.23,4.15,58.84,12.45l-11.17,45.1c-14.6-8.01-29.78-12.03-45.52-12.03c-16.61,0-24.91,5.58-24.91,16.75
		c0,5.15,2.36,9.38,7.09,12.67c4.72,3.29,13.67,7.23,26.84,11.81c19.76,6.87,34.07,15.54,42.95,25.98
		c8.87,10.46,13.45,23.41,13.74,38.87c0,20.61-7.8,37.15-23.41,49.6c-15.61,12.45-38.01,18.68-67.21,18.68
		C1259.07,646.77,1236.45,641.77,1217.84,631.74z"/>
</g>
</svg>
